<svg width="21" height="21" viewBox="0 0 21 21" fill="none" xmlns="http://www.w3.org/2000/svg">
<circle cx="10.2834" cy="10.2711" r="10" fill="black"/>
<path d="M13.1897 10.982C13.1897 11.6734 13.135 12.2926 13.0256 12.8394C12.9202 13.3824 12.7522 13.8433 12.5217 14.2222C12.2913 14.6012 11.9905 14.8902 11.6194 15.0894C11.2483 15.2887 10.7991 15.3883 10.2717 15.3883C9.61157 15.3883 9.06665 15.2144 8.63696 14.8668C8.20728 14.5152 7.88892 14.0113 7.68188 13.3551C7.47485 12.6949 7.37134 11.9039 7.37134 10.982C7.37134 10.0601 7.46509 9.27107 7.65259 8.61482C7.84399 7.95467 8.15259 7.44881 8.57837 7.09724C9.00415 6.74568 9.5686 6.5699 10.2717 6.5699C10.9358 6.5699 11.4827 6.74568 11.9124 7.09724C12.3459 7.4449 12.6663 7.94881 12.8733 8.60896C13.0842 9.26521 13.1897 10.0562 13.1897 10.982ZM8.76001 10.982C8.76001 11.7047 8.80688 12.3082 8.90063 12.7926C8.99829 13.2769 9.15845 13.6402 9.3811 13.8824C9.60376 14.1207 9.90063 14.2398 10.2717 14.2398C10.6428 14.2398 10.9397 14.1207 11.1624 13.8824C11.385 13.6441 11.5452 13.2828 11.6428 12.7984C11.7444 12.314 11.7952 11.7086 11.7952 10.982C11.7952 10.2633 11.7463 9.6617 11.6487 9.17732C11.551 8.69295 11.3909 8.32967 11.1682 8.08748C10.9456 7.84138 10.6467 7.71834 10.2717 7.71834C9.89673 7.71834 9.5979 7.84138 9.37524 8.08748C9.15649 8.32967 8.99829 8.69295 8.90063 9.17732C8.80688 9.6617 8.76001 10.2633 8.76001 10.982Z" fill="white"/>
</svg>
