<svg width="30" height="27" viewBox="0 0 30 27" fill="none" xmlns="http://www.w3.org/2000/svg">
<g filter="url(#filter0_d_2_339)">
<path d="M24.4548 13.0319H10.5149L11.2148 11.6731L22.8443 11.653C23.2375 11.653 23.5746 11.3852 23.6448 11.0148L25.2554 2.42206C25.2975 2.1967 25.2343 1.96464 25.0798 1.78837C25.0034 1.70161 24.9082 1.63173 24.8007 1.58357C24.6931 1.53541 24.5759 1.51012 24.4571 1.50945L9.66278 1.46259L9.53637 0.89584C9.45678 0.534367 9.11502 0.271072 8.72643 0.271072H5.10978C4.89062 0.271072 4.68044 0.354057 4.52547 0.501771C4.37051 0.649484 4.28345 0.849827 4.28345 1.05873C4.28345 1.26762 4.37051 1.46797 4.52547 1.61568C4.68044 1.76339 4.89062 1.84638 5.10978 1.84638H8.05694L8.60939 4.34991L9.96944 10.6266L8.21846 13.351C8.12753 13.468 8.07276 13.6069 8.06035 13.752C8.04794 13.8971 8.07838 14.0427 8.14823 14.1722C8.28869 14.4377 8.57193 14.605 8.88561 14.605H10.3557C10.0423 15.0018 9.873 15.4851 9.87346 15.9817C9.87346 17.2447 10.9503 18.2711 12.2752 18.2711C13.6001 18.2711 14.6769 17.2447 14.6769 15.9817C14.6769 15.4842 14.5037 15 14.1947 14.605H17.9659C17.6525 15.0018 17.4832 15.4851 17.4836 15.9817C17.4836 17.2447 18.5605 18.2711 19.8854 18.2711C21.2103 18.2711 22.2871 17.2447 22.2871 15.9817C22.2871 15.4842 22.1139 15 21.8049 14.605H24.4571C24.9112 14.605 25.2834 14.2525 25.2834 13.8174C25.2821 13.6087 25.1942 13.409 25.039 13.2619C24.8837 13.1147 24.6737 13.0321 24.4548 13.0319ZM10.0069 3.01559L23.4857 3.05798L22.1654 10.1045L11.5776 10.1223L10.0069 3.01559ZM12.2752 16.6868C11.8679 16.6868 11.5355 16.37 11.5355 15.9817C11.5355 15.5935 11.8679 15.2767 12.2752 15.2767C12.6825 15.2767 13.0149 15.5935 13.0149 15.9817C13.0149 16.1687 12.937 16.3481 12.7983 16.4803C12.6595 16.6126 12.4714 16.6868 12.2752 16.6868ZM19.8854 16.6868C19.4781 16.6868 19.1457 16.37 19.1457 15.9817C19.1457 15.5935 19.4781 15.2767 19.8854 15.2767C20.2927 15.2767 20.6251 15.5935 20.6251 15.9817C20.6251 16.1687 20.5472 16.3481 20.4084 16.4803C20.2697 16.6126 20.0816 16.6868 19.8854 16.6868Z" fill="white"/>
</g>
<defs>
<filter id="filter0_d_2_339" x="0.283447" y="0.271072" width="29" height="26" filterUnits="userSpaceOnUse" color-interpolation-filters="sRGB">
<feFlood flood-opacity="0" result="BackgroundImageFix"/>
<feColorMatrix in="SourceAlpha" type="matrix" values="0 0 0 0 0 0 0 0 0 0 0 0 0 0 0 0 0 0 127 0" result="hardAlpha"/>
<feOffset dy="4"/>
<feGaussianBlur stdDeviation="2"/>
<feComposite in2="hardAlpha" operator="out"/>
<feColorMatrix type="matrix" values="0 0 0 0 0 0 0 0 0 0 0 0 0 0 0 0 0 0 0.25 0"/>
<feBlend mode="normal" in2="BackgroundImageFix" result="effect1_dropShadow_2_339"/>
<feBlend mode="normal" in="SourceGraphic" in2="effect1_dropShadow_2_339" result="shape"/>
</filter>
</defs>
</svg>
