<svg width="25" height="25" viewBox="0 0 25 25" fill="none" xmlns="http://www.w3.org/2000/svg">
<path d="M21.7208 8.25578L15.4517 7.67435L12.9614 1.89169C12.787 1.48679 12.2129 1.48679 12.0386 1.89169L9.5483 7.6743L3.27918 8.25578C2.84019 8.29647 2.66282 8.84247 2.99399 9.13343L7.72406 13.2887L6.33979 19.4307C6.24286 19.8608 6.70734 20.1982 7.08637 19.9732L12.5 16.7586L17.9136 19.9732C18.2927 20.1982 18.7571 19.8608 18.6602 19.4307L17.2758 13.2887L22.006 9.13343C22.3371 8.84247 22.1597 8.29647 21.7208 8.25578Z" fill="#FFDC64"/>
<path d="M13.8669 3.99451L12.9613 1.89169C12.7869 1.48679 12.2129 1.48679 12.0385 1.89169L9.54825 7.6743L3.27918 8.25578C2.84019 8.29647 2.66282 8.84247 2.99399 9.13343L7.72406 13.2887L6.33979 19.4307C6.24286 19.8608 6.70734 20.1982 7.08637 19.9732L7.80689 19.5453C8.9881 11.8991 12.3088 6.28614 13.8669 3.99451Z" fill="#FFC850"/>
</svg>
